<svg width="8" height="11" viewBox="0 0 8 11" fill="none" xmlns="http://www.w3.org/2000/svg">
<path opacity="0.3" d="M0.856934 11V0.335938H4.15283C4.68506 0.335938 5.16113 0.394531 5.58105 0.511719C6.00586 0.628906 6.36475 0.80957 6.65771 1.05371C6.95068 1.29297 7.17285 1.5957 7.32422 1.96191C7.48047 2.32812 7.55859 2.76025 7.55859 3.2583C7.55859 3.50244 7.53174 3.73682 7.47803 3.96143C7.4292 4.18604 7.34863 4.396 7.23633 4.59131C7.12891 4.78662 6.98975 4.96484 6.81885 5.12598C6.65283 5.28223 6.45264 5.41162 6.21826 5.51416C6.4917 5.59229 6.72363 5.71191 6.91406 5.87305C7.10449 6.0293 7.2583 6.2124 7.37549 6.42236C7.49268 6.63232 7.57813 6.86182 7.63184 7.11084C7.68555 7.35498 7.7124 7.60645 7.7124 7.86523C7.7124 8.90039 7.42676 9.68164 6.85547 10.209C6.28906 10.7363 5.46631 11 4.38721 11H0.856934ZM3.01025 6.36377V9.21289H4.38721C4.59717 9.21289 4.77539 9.17871 4.92188 9.11035C5.07324 9.04199 5.19531 8.94678 5.28809 8.82471C5.38574 8.69775 5.45654 8.55127 5.50049 8.38525C5.54443 8.21924 5.56641 8.03613 5.56641 7.83594C5.56641 7.38184 5.48096 7.02295 5.31006 6.75928C5.14404 6.49561 4.86084 6.36377 4.46045 6.36377H3.01025ZM3.01025 4.79639H4.13086C4.56055 4.79639 4.87793 4.68652 5.08301 4.4668C5.29297 4.24219 5.39795 3.91504 5.39795 3.48535C5.39795 3.00195 5.30029 2.65527 5.10498 2.44531C4.90967 2.23535 4.59229 2.13037 4.15283 2.13037H3.01025V4.79639Z" fill="black"/>
</svg>
