<svg width="20" height="20" viewBox="0 0 20 20" fill="none" xmlns="http://www.w3.org/2000/svg">
<path d="M5.85693 15V4.33594H9.15283C9.68506 4.33594 10.1611 4.39453 10.5811 4.51172C11.0059 4.62891 11.3647 4.80957 11.6577 5.05371C11.9507 5.29297 12.1729 5.5957 12.3242 5.96191C12.4805 6.32812 12.5586 6.76025 12.5586 7.2583C12.5586 7.50244 12.5317 7.73682 12.478 7.96143C12.4292 8.18604 12.3486 8.396 12.2363 8.59131C12.1289 8.78662 11.9897 8.96484 11.8188 9.12598C11.6528 9.28223 11.4526 9.41162 11.2183 9.51416C11.4917 9.59229 11.7236 9.71191 11.9141 9.87305C12.1045 10.0293 12.2583 10.2124 12.3755 10.4224C12.4927 10.6323 12.5781 10.8618 12.6318 11.1108C12.6855 11.355 12.7124 11.6064 12.7124 11.8652C12.7124 12.9004 12.4268 13.6816 11.8555 14.209C11.2891 14.7363 10.4663 15 9.38721 15H5.85693ZM8.01025 10.3638V13.2129H9.38721C9.59717 13.2129 9.77539 13.1787 9.92188 13.1104C10.0732 13.042 10.1953 12.9468 10.2881 12.8247C10.3857 12.6978 10.4565 12.5513 10.5005 12.3853C10.5444 12.2192 10.5664 12.0361 10.5664 11.8359C10.5664 11.3818 10.481 11.0229 10.3101 10.7593C10.144 10.4956 9.86084 10.3638 9.46045 10.3638H8.01025ZM8.01025 8.79639H9.13086C9.56055 8.79639 9.87793 8.68652 10.083 8.4668C10.293 8.24219 10.3979 7.91504 10.3979 7.48535C10.3979 7.00195 10.3003 6.65527 10.105 6.44531C9.90967 6.23535 9.59229 6.13037 9.15283 6.13037H8.01025V8.79639Z" fill="black"/>
</svg>
