<svg width="17" height="14" viewBox="0 0 17 14" fill="none" xmlns="http://www.w3.org/2000/svg">
<g opacity="0.3">
<path d="M3.91239 10.9123L0 6.99988L3.91239 3.08748C3.96656 3.03331 4.03087 2.99035 4.10164 2.96103C4.17241 2.93171 4.24827 2.91663 4.32487 2.91663C4.40148 2.91663 4.47733 2.93171 4.54811 2.96103C4.61888 2.99035 4.68319 3.03331 4.73735 3.08748L5.56219 3.91232C5.61636 3.96648 5.65932 4.03079 5.68864 4.10156C5.71796 4.17234 5.73304 4.24819 5.73304 4.3248C5.73304 4.4014 5.71796 4.47726 5.68864 4.54803C5.65932 4.6188 5.61636 4.68311 5.56219 4.73728L3.29948 6.99988L5.56213 9.26253C5.6163 9.3167 5.65927 9.38101 5.68858 9.45178C5.7179 9.52255 5.73299 9.59841 5.73299 9.67501C5.73299 9.75162 5.7179 9.82747 5.68858 9.89825C5.65927 9.96902 5.6163 10.0333 5.56213 10.0875L4.7373 10.9123C4.62789 11.0217 4.47953 11.0831 4.32483 11.0831C4.17014 11.0831 4.02178 11.0217 3.91239 10.9123Z" fill="black"/>
<path d="M11.5963 10.9123L10.7714 10.0875C10.7173 10.0333 10.6743 9.96902 10.645 9.89825C10.6157 9.82747 10.6006 9.75162 10.6006 9.67501C10.6006 9.59841 10.6157 9.52255 10.645 9.45178C10.6743 9.38101 10.7173 9.3167 10.7714 9.26253L13.0341 6.99993L10.7715 4.73728C10.7173 4.68311 10.6744 4.6188 10.645 4.54803C10.6157 4.47726 10.6006 4.4014 10.6006 4.3248C10.6006 4.24819 10.6157 4.17234 10.645 4.10156C10.6744 4.03079 10.7173 3.96648 10.7715 3.91232L11.5963 3.08748C11.6505 3.03331 11.7148 2.99035 11.7856 2.96103C11.8563 2.93171 11.9322 2.91663 12.0088 2.91663C12.0854 2.91663 12.1613 2.93171 12.232 2.96103C12.3028 2.99035 12.3671 3.03331 12.4213 3.08748L16.3336 6.99993L12.4212 10.9123C12.3118 11.0217 12.1635 11.0832 12.0088 11.0832C11.854 11.0832 11.7057 11.0217 11.5963 10.9123Z" fill="black"/>
<path d="M7.65709 14H6.53842C6.4537 14 6.36999 13.9815 6.29313 13.9459C6.21626 13.9103 6.14808 13.8584 6.09332 13.7937C6.03856 13.7291 5.99853 13.6533 5.97603 13.5716C5.95353 13.4899 5.94909 13.4043 5.96302 13.3208L8.1019 0.487433C8.1246 0.351225 8.19489 0.227488 8.30025 0.138233C8.40561 0.048979 8.53922 -3.62387e-06 8.67731 2.01086e-10H9.79598C9.8807 -5.28867e-07 9.9644 0.0184525 10.0413 0.0540758C10.1181 0.0896992 10.1863 0.141638 10.2411 0.20628C10.2958 0.270922 10.3359 0.346717 10.3584 0.428393C10.3809 0.510069 10.3853 0.595667 10.3714 0.679233L8.2325 13.5126C8.2098 13.6488 8.13951 13.7725 8.03415 13.8618C7.92878 13.951 7.79517 14 7.65709 14Z" fill="black"/>
</g>
</svg>
