<svg width="20" height="20" viewBox="0 0 20 20" fill="none" xmlns="http://www.w3.org/2000/svg">
<path d="M5.91239 13.9124L2 10L5.91239 6.0876C5.96656 6.03344 6.03087 5.99047 6.10164 5.96115C6.17241 5.93184 6.24827 5.91675 6.32487 5.91675C6.40148 5.91675 6.47733 5.93184 6.54811 5.96115C6.61888 5.99047 6.68319 6.03344 6.73735 6.0876L7.56219 6.91244C7.61636 6.9666 7.65932 7.03091 7.68864 7.10169C7.71796 7.17246 7.73304 7.24831 7.73304 7.32492C7.73304 7.40152 7.71796 7.47738 7.68864 7.54815C7.65932 7.61893 7.61636 7.68323 7.56219 7.7374L5.29948 10L7.56213 12.2627C7.6163 12.3168 7.65927 12.3811 7.68858 12.4519C7.7179 12.5227 7.73299 12.5985 7.73299 12.6751C7.73299 12.7517 7.7179 12.8276 7.68858 12.8984C7.65927 12.9691 7.6163 13.0334 7.56213 13.0876L6.7373 13.9124C6.6279 14.0218 6.47953 14.0833 6.32483 14.0832C6.17014 14.0832 6.02178 14.0218 5.91239 13.9124V13.9124Z" fill="black"/>
<path d="M13.5958 13.9124L12.771 13.0876C12.7168 13.0334 12.6738 12.9691 12.6445 12.8984C12.6152 12.8276 12.6001 12.7517 12.6001 12.6751C12.6001 12.5985 12.6152 12.5227 12.6445 12.4519C12.6738 12.3811 12.7168 12.3168 12.771 12.2627L15.0337 10.0001L12.771 7.7374C12.7168 7.68323 12.6739 7.61893 12.6445 7.54815C12.6152 7.47738 12.6001 7.40152 12.6001 7.32492C12.6001 7.24831 12.6152 7.17246 12.6445 7.10169C12.6739 7.03091 12.7168 6.9666 12.771 6.91244L13.5958 6.0876C13.65 6.03344 13.7143 5.99047 13.7851 5.96115C13.8559 5.93184 13.9317 5.91675 14.0083 5.91675C14.0849 5.91675 14.1608 5.93184 14.2315 5.96115C14.3023 5.99047 14.3666 6.03344 14.4208 6.0876L18.3331 10.0001L14.4207 13.9124C14.3113 14.0218 14.163 14.0833 14.0083 14.0833C13.8536 14.0833 13.7052 14.0218 13.5958 13.9124V13.9124Z" fill="black"/>
<path d="M9.6566 17H8.53793C8.45321 17 8.3695 16.9815 8.29264 16.9459C8.21577 16.9103 8.14759 16.8584 8.09283 16.7937C8.03807 16.7291 7.99805 16.6533 7.97554 16.5716C7.95304 16.4899 7.9486 16.4043 7.96253 16.3208L10.1014 3.48743C10.1241 3.35123 10.1944 3.22749 10.2998 3.13823C10.4051 3.04898 10.5387 3 10.6768 3H11.7955C11.8802 3 11.9639 3.01845 12.0408 3.05408C12.1176 3.0897 12.1858 3.14164 12.2406 3.20628C12.2954 3.27092 12.3354 3.34672 12.3579 3.42839C12.3804 3.51007 12.3848 3.59567 12.3709 3.67923L10.232 16.5126C10.2093 16.6488 10.139 16.7725 10.0337 16.8618C9.92829 16.951 9.79468 17 9.6566 17V17Z" fill="black"/>
</svg>
