<svg width="20" height="20" viewBox="0 0 20 20" fill="none" xmlns="http://www.w3.org/2000/svg">
<path d="M9.33496 15H7.18896V10.437H4.01025V15H1.85693V4.33594H4.01025V8.6499H7.18896V4.33594H9.33496V15ZM17.1938 15H10.9097V13.5352L13.7954 9.86572C14.0005 9.58252 14.1714 9.32617 14.3081 9.09668C14.4448 8.8623 14.5547 8.64746 14.6377 8.45215C14.7207 8.25684 14.7793 8.07617 14.8135 7.91016C14.8477 7.74414 14.8647 7.58301 14.8647 7.42676C14.8647 6.95312 14.7817 6.58203 14.6157 6.31348C14.4546 6.04492 14.2202 5.91064 13.9126 5.91064C13.7271 5.91064 13.5659 5.95703 13.4292 6.0498C13.2925 6.1377 13.1777 6.26221 13.085 6.42334C12.9922 6.57959 12.9238 6.76758 12.8799 6.9873C12.8359 7.20703 12.814 7.44385 12.814 7.69775H10.7339C10.7339 7.21436 10.8071 6.76025 10.9536 6.33545C11.105 5.91064 11.3174 5.53955 11.5908 5.22217C11.8691 4.90479 12.2061 4.65332 12.6016 4.46777C13.002 4.28223 13.4512 4.18945 13.9492 4.18945C14.4375 4.18945 14.8672 4.26025 15.2383 4.40186C15.6143 4.53857 15.9292 4.73633 16.1831 4.99512C16.437 5.25391 16.6274 5.57129 16.7544 5.94727C16.8862 6.32324 16.9521 6.74561 16.9521 7.21436C16.9521 7.5708 16.9058 7.91748 16.813 8.25439C16.7202 8.58643 16.5859 8.91846 16.4102 9.25049C16.2393 9.58252 16.0293 9.91943 15.7803 10.2612C15.5312 10.5981 15.2505 10.9521 14.938 11.3232L13.5684 13.2788H17.1938V15Z" fill="black"/>
</svg>
