<svg width="20" height="20" viewBox="0 0 20 20" fill="none" xmlns="http://www.w3.org/2000/svg">
<path d="M10.0874 15H8.05859L9.43555 7.0752H11.4644L10.0874 15ZM9.69922 5.06104C9.69922 4.8999 9.72363 4.75098 9.77246 4.61426C9.82617 4.47754 9.90186 4.35791 9.99951 4.25537C10.0972 4.15283 10.2144 4.07227 10.3511 4.01367C10.4878 3.9502 10.6367 3.91846 10.7979 3.91846C10.9541 3.91357 11.0981 3.93799 11.23 3.9917C11.3618 4.04541 11.4766 4.12109 11.5742 4.21875C11.6719 4.31152 11.7476 4.42383 11.8013 4.55566C11.8599 4.6875 11.8892 4.83154 11.8892 4.98779C11.8892 5.14893 11.8623 5.30029 11.8086 5.44189C11.7598 5.57861 11.6865 5.69824 11.5889 5.80078C11.4912 5.90332 11.374 5.98633 11.2373 6.0498C11.1006 6.1084 10.9517 6.1377 10.7905 6.1377C10.6343 6.14258 10.4878 6.11816 10.3511 6.06445C10.2192 6.01074 10.1045 5.9375 10.0068 5.84473C9.91406 5.74707 9.83838 5.63232 9.77979 5.50049C9.72607 5.36377 9.69922 5.21729 9.69922 5.06104Z" fill="black"/>
</svg>
