<svg width="4" height="12" viewBox="0 0 4 12" fill="none" xmlns="http://www.w3.org/2000/svg">
<path opacity="0.3" d="M2.0874 12H0.0585938L1.43555 4.0752H3.46436L2.0874 12ZM1.69922 2.06104C1.69922 1.8999 1.72363 1.75098 1.77246 1.61426C1.82617 1.47754 1.90186 1.35791 1.99951 1.25537C2.09717 1.15283 2.21436 1.07227 2.35107 1.01367C2.48779 0.950195 2.63672 0.918457 2.79785 0.918457C2.9541 0.913574 3.09814 0.937988 3.22998 0.991699C3.36182 1.04541 3.47656 1.12109 3.57422 1.21875C3.67188 1.31152 3.74756 1.42383 3.80127 1.55566C3.85986 1.6875 3.88916 1.83154 3.88916 1.98779C3.88916 2.14893 3.8623 2.30029 3.80859 2.44189C3.75977 2.57861 3.68652 2.69824 3.58887 2.80078C3.49121 2.90332 3.37402 2.98633 3.2373 3.0498C3.10059 3.1084 2.95166 3.1377 2.79053 3.1377C2.63428 3.14258 2.48779 3.11816 2.35107 3.06445C2.21924 3.01074 2.10449 2.9375 2.00684 2.84473C1.91406 2.74707 1.83838 2.63232 1.77979 2.50049C1.72607 2.36377 1.69922 2.21729 1.69922 2.06104Z" fill="black"/>
</svg>
