<svg width="15" height="13" viewBox="0 0 15 13" fill="none" xmlns="http://www.w3.org/2000/svg">
<g opacity="0.3">
<path d="M13.5876 1.17126H4.25423C3.93207 1.17126 3.6709 1.43243 3.6709 1.7546V2.92126C3.6709 3.24343 3.93207 3.5046 4.25423 3.5046H13.5876C13.9097 3.5046 14.1709 3.24343 14.1709 2.92126V1.7546C14.1709 1.43243 13.9097 1.17126 13.5876 1.17126Z" fill="black"/>
<path d="M13.5876 5.83789H4.25423C3.93207 5.83789 3.6709 6.09906 3.6709 6.42122V7.58789C3.6709 7.91006 3.93207 8.17122 4.25423 8.17122H13.5876C13.9097 8.17122 14.1709 7.91006 14.1709 7.58789V6.42122C14.1709 6.09906 13.9097 5.83789 13.5876 5.83789Z" fill="black"/>
<path d="M13.5876 10.5045H4.25423C3.93207 10.5045 3.6709 10.7657 3.6709 11.0878V12.2545C3.6709 12.5767 3.93207 12.8378 4.25423 12.8378H13.5876C13.9097 12.8378 14.1709 12.5767 14.1709 12.2545V11.0878C14.1709 10.7657 13.9097 10.5045 13.5876 10.5045Z" fill="black"/>
<path d="M0.682617 0H2.08626V3.49543H1.34229V0.689267H0.682617V0Z" fill="black"/>
<path d="M1.51529 6.05661C1.59544 5.95342 1.64126 5.82771 1.64631 5.69715C1.64788 5.64363 1.6386 5.59035 1.61903 5.54051C1.59945 5.49068 1.56998 5.44533 1.53239 5.4072C1.49438 5.36845 1.44871 5.33805 1.39829 5.31794C1.34786 5.29783 1.29381 5.28846 1.23956 5.29041C1.10512 5.30887 0.977619 5.36137 0.869151 5.44291C0.760684 5.52446 0.674843 5.63237 0.619768 5.75639L0 5.38953C0.136607 5.1648 0.318113 4.97068 0.533167 4.8193C0.754582 4.68295 1.01162 4.61571 1.27144 4.62618C1.56011 4.62225 1.84035 4.72349 2.05985 4.91101C2.17221 5.00565 2.26135 5.12481 2.32041 5.25931C2.37947 5.39382 2.40688 5.54008 2.40052 5.68685C2.40019 5.86689 2.35308 6.04376 2.2638 6.20011C2.12167 6.42859 1.9526 6.63917 1.76022 6.82731L1.13587 7.47672H2.50423V8.17119H0.0592433V7.59584L1.07666 6.5545C1.23478 6.39942 1.38138 6.23302 1.51529 6.05661Z" fill="black"/>
<path d="M0.217891 9.99182V9.33215H2.3405V9.86765L1.63189 10.6765C1.87481 10.7051 2.09851 10.8227 2.25971 11.0066C2.42091 11.1906 2.50815 11.4278 2.50456 11.6723C2.51268 11.8338 2.4835 11.995 2.41929 12.1434C2.35508 12.2918 2.25755 12.4234 2.13428 12.528C1.86704 12.7417 1.53163 12.8517 1.18972 12.8378C0.769037 12.8251 0.362482 12.6831 0.0253906 12.4311L0.342117 11.8158C0.59239 12.019 0.899036 12.1403 1.22054 12.1633C1.3576 12.1689 1.49265 12.1288 1.60449 12.0494C1.65455 12.0109 1.6945 11.9609 1.7209 11.9035C1.7473 11.8461 1.75936 11.7832 1.75602 11.7202C1.75803 11.653 1.74312 11.5864 1.71267 11.5264C1.68221 11.4665 1.63719 11.4152 1.58172 11.3772C1.43893 11.2851 1.27055 11.2408 1.10093 11.2507C0.943414 11.2602 0.788049 11.292 0.639501 11.3453V10.7745L1.30373 9.99182H0.217891Z" fill="black"/>
</g>
</svg>
