<svg width="20" height="20" viewBox="0 0 20 20" fill="none" xmlns="http://www.w3.org/2000/svg">
<path d="M16.5876 4.17114H7.25423C6.93207 4.17114 6.6709 4.43231 6.6709 4.75448V5.92114C6.6709 6.24331 6.93207 6.50448 7.25423 6.50448H16.5876C16.9097 6.50448 17.1709 6.24331 17.1709 5.92114V4.75448C17.1709 4.43231 16.9097 4.17114 16.5876 4.17114Z" fill="black"/>
<path d="M16.5876 8.83789H7.25423C6.93207 8.83789 6.6709 9.09906 6.6709 9.42122V10.5879C6.6709 10.9101 6.93207 11.1712 7.25423 11.1712H16.5876C16.9097 11.1712 17.1709 10.9101 17.1709 10.5879V9.42122C17.1709 9.09906 16.9097 8.83789 16.5876 8.83789Z" fill="black"/>
<path d="M16.5876 13.5046H7.25423C6.93207 13.5046 6.6709 13.7658 6.6709 14.088V15.2546C6.6709 15.5768 6.93207 15.838 7.25423 15.838H16.5876C16.9097 15.838 17.1709 15.5768 17.1709 15.2546V14.088C17.1709 13.7658 16.9097 13.5046 16.5876 13.5046Z" fill="black"/>
<path d="M3.68262 3H5.08626V6.49543H4.34229V3.68927H3.68262V3Z" fill="black"/>
<path d="M4.51529 9.05649C4.59544 8.95329 4.64126 8.82759 4.64631 8.69703C4.64788 8.64351 4.6386 8.59022 4.61903 8.54039C4.59945 8.49056 4.56998 8.44521 4.53239 8.40707C4.49438 8.36832 4.44871 8.33793 4.39829 8.31782C4.34786 8.29771 4.29381 8.28834 4.23956 8.29029C4.10512 8.30875 3.97762 8.36124 3.86915 8.44279C3.76068 8.52434 3.67484 8.63224 3.61977 8.75627L3 8.38941C3.13661 8.16468 3.31811 7.97056 3.53317 7.81918C3.75458 7.68283 4.01162 7.61559 4.27144 7.62606C4.56011 7.62213 4.84035 7.72337 5.05986 7.91089C5.17221 8.00553 5.26135 8.12469 5.32041 8.25919C5.37947 8.3937 5.40688 8.53996 5.40052 8.68672C5.40019 8.86677 5.35308 9.04364 5.2638 9.19999C5.12167 9.42847 4.9526 9.63905 4.76022 9.82719L4.13587 10.4766H5.50423V11.1711H3.05924V10.5957L4.07666 9.55437C4.23478 9.3993 4.38138 9.2329 4.51529 9.05649V9.05649Z" fill="black"/>
<path d="M3.2174 12.9919V12.3323H5.34001V12.8678L4.6314 13.6767C4.87432 13.7052 5.09802 13.8228 5.25922 14.0068C5.42042 14.1907 5.50766 14.4279 5.50407 14.6725C5.51219 14.8339 5.48301 14.9951 5.4188 15.1435C5.35459 15.2919 5.25707 15.4235 5.13379 15.5281C4.86655 15.7418 4.53114 15.8518 4.18924 15.838C3.76855 15.8253 3.36199 15.6832 3.0249 15.4312L3.34163 14.816C3.5919 15.0191 3.89855 15.1404 4.22005 15.1635C4.35712 15.169 4.49216 15.129 4.604 15.0495C4.65406 15.0111 4.69402 14.961 4.72042 14.9036C4.74682 14.8463 4.75887 14.7834 4.75554 14.7203C4.75754 14.6531 4.74263 14.5865 4.71218 14.5265C4.68172 14.4666 4.6367 14.4153 4.58124 14.3773C4.43844 14.2852 4.27006 14.2409 4.10044 14.2508C3.94293 14.2603 3.78756 14.2922 3.63901 14.3454V13.7747L4.30324 12.9919H3.2174V12.9919Z" fill="black"/>
</svg>
