<svg width="13" height="9" viewBox="0 0 13 9" fill="none" xmlns="http://www.w3.org/2000/svg">
<g opacity="0.3">
<path fill-rule="evenodd" clip-rule="evenodd" d="M10.7315 1.16456C10.4462 1.29936 10.1526 1.75813 10.0099 2.13256C9.86728 2.50699 9.82845 2.98593 9.82861 3.73611H12.3197C12.6954 3.73611 13 4.03411 13 4.41866V7.81745C13 8.19441 12.6917 8.5 12.3215 8.5H8.23409C7.85935 8.5 7.55556 8.19242 7.55556 7.82425V4.40779C7.55556 3.26952 7.87315 2.33417 8.48537 1.59141C9.09758 0.848658 9.93262 0.51306 10.7315 0.333333V1.16456Z" fill="black"/>
<path fill-rule="evenodd" clip-rule="evenodd" d="M3.92582 1.16456C3.64051 1.29936 3.34692 1.75813 3.20427 2.13256C3.06162 2.50699 3.02279 2.98593 3.02294 3.73611H5.51399C5.88974 3.73611 6.19434 4.03411 6.19434 4.41866V7.81745C6.19434 8.19441 5.88602 8.5 5.5158 8.5H1.42843C1.05368 8.5 0.749892 8.19242 0.749892 7.82425V4.40779C0.749892 3.26952 1.06748 2.33417 1.6797 1.59141C2.29192 0.848658 3.12695 0.51306 3.92582 0.333333V1.16456Z" fill="black"/>
</g>
</svg>
