<svg width="20" height="20" viewBox="0 0 20 20" fill="none" xmlns="http://www.w3.org/2000/svg">
<path fill-rule="evenodd" clip-rule="evenodd" d="M13.7315 7.16456C13.4462 7.29936 13.1526 7.75813 13.0099 8.13256C12.8673 8.50699 12.8285 8.98593 12.8286 9.73611H15.3197C15.6954 9.73611 16 10.0341 16 10.4187V13.8175C16 14.1944 15.6917 14.5 15.3215 14.5H11.2341C10.8593 14.5 10.5556 14.1924 10.5556 13.8243V10.4078C10.5556 9.26952 10.8731 8.33417 11.4854 7.59141C12.0976 6.84866 12.9326 6.51306 13.7315 6.33333V7.16456Z" fill="black"/>
<path fill-rule="evenodd" clip-rule="evenodd" d="M6.92582 7.16456C6.64051 7.29936 6.34692 7.75813 6.20427 8.13256C6.06162 8.50699 6.02279 8.98593 6.02294 9.73611H8.51399C8.88974 9.73611 9.19434 10.0341 9.19434 10.4187V13.8175C9.19434 14.1944 8.88602 14.5 8.5158 14.5H4.42843C4.05368 14.5 3.74989 14.1924 3.74989 13.8243V10.4078C3.74989 9.26952 4.06748 8.33417 4.6797 7.59141C5.29192 6.84866 6.12695 6.51306 6.92582 6.33333V7.16456Z" fill="black"/>
</svg>
