<svg width="12" height="12" viewBox="0 0 12 12" fill="none" xmlns="http://www.w3.org/2000/svg">
<path fill-rule="evenodd" clip-rule="evenodd" d="M6.72246 7.81523C6.75801 7.96758 6.77578 8.14023 6.77578 8.3332C6.77578 8.51094 6.75547 8.67598 6.71484 8.82832C6.67422 8.98066 6.60566 9.11269 6.50918 9.22441C6.41777 9.33105 6.2959 9.41738 6.14355 9.4834C5.99629 9.54434 5.81602 9.5748 5.60273 9.5748C5.33867 9.5748 5.10762 9.54434 4.90957 9.4834C4.71152 9.41738 4.54395 9.31328 4.40684 9.17109C4.27481 9.02383 4.17578 8.8334 4.10977 8.5998C4.04375 8.36621 4.01074 8.08184 4.01074 7.74668H1.76367C1.76367 8.37637 1.87285 8.91973 2.09121 9.37676C2.31465 9.83379 2.60664 10.2121 2.96719 10.5117C3.32773 10.8113 3.73652 11.0348 4.19355 11.182C4.65566 11.3242 5.12539 11.3953 5.60273 11.3953C6.13086 11.3953 6.60566 11.3268 7.02715 11.1896C7.44863 11.0475 7.80664 10.8469 8.10117 10.5879C8.40078 10.3238 8.6293 10.0014 8.78672 9.62051C8.94922 9.23965 9.03047 8.80547 9.03047 8.31797C9.03047 7.86094 8.96699 7.45215 8.84004 7.0916C8.83438 7.07531 8.8286 7.0591 8.82268 7.04297H6.08802C6.26162 7.15437 6.39693 7.26961 6.49395 7.38867C6.61074 7.5207 6.68691 7.66289 6.72246 7.81523ZM5.25234 4.37988C5.4188 4.4692 5.59824 4.5569 5.79066 4.64297H2.4339C2.38198 4.55543 2.33376 4.4652 2.28926 4.37227C2.12168 4.00664 2.03789 3.58262 2.03789 3.1002C2.03789 2.63809 2.12422 2.2166 2.29688 1.83574C2.46953 1.4498 2.71074 1.12227 3.02051 0.853125C3.33535 0.583984 3.70605 0.375781 4.13262 0.228516C4.56426 0.0761719 5.03906 0 5.55703 0C6.09023 0 6.57012 0.0863281 6.99668 0.258984C7.42832 0.426562 7.79395 0.662695 8.09356 0.967383C8.39824 1.26699 8.63184 1.62754 8.79434 2.04902C8.95684 2.46543 9.03809 2.925 9.03809 3.42773H6.80625C6.80625 3.19414 6.78086 2.98086 6.73008 2.78789C6.68438 2.58984 6.6082 2.42227 6.50156 2.28516C6.4 2.14297 6.26797 2.03379 6.10547 1.95762C5.94297 1.87637 5.74746 1.83574 5.51895 1.83574C5.30566 1.83574 5.12031 1.86875 4.96289 1.93477C4.81055 2.00078 4.68359 2.09219 4.58203 2.20898C4.48047 2.3207 4.4043 2.45527 4.35352 2.6127C4.30273 2.77012 4.27734 2.9377 4.27734 3.11543C4.27734 3.29824 4.31543 3.46328 4.3916 3.61055C4.47285 3.75781 4.58457 3.89492 4.72676 4.02187C4.87402 4.14883 5.04922 4.26816 5.25234 4.37988ZM0.6 5.24297C0.268629 5.24297 0 5.5116 0 5.84297C0 6.17434 0.268629 6.44297 0.6 6.44297H11.4C11.7314 6.44297 12 6.17434 12 5.84297C12 5.5116 11.7314 5.24297 11.4 5.24297H0.6Z" fill="#B3B3B3"/>
</svg>
