<svg width="20" height="20" viewBox="0 0 20 20" fill="none" xmlns="http://www.w3.org/2000/svg">
<path fill-rule="evenodd" clip-rule="evenodd" d="M10.7225 11.8152C10.758 11.9676 10.7758 12.1402 10.7758 12.3332C10.7758 12.5109 10.7555 12.676 10.7148 12.8283C10.6742 12.9807 10.6057 13.1127 10.5092 13.2244C10.4178 13.3311 10.2959 13.4174 10.1436 13.4834C9.99629 13.5443 9.81602 13.5748 9.60273 13.5748C9.33867 13.5748 9.10762 13.5443 8.90957 13.4834C8.71152 13.4174 8.54395 13.3133 8.40684 13.1711C8.27481 13.0238 8.17578 12.8334 8.10977 12.5998C8.04375 12.3662 8.01074 12.0818 8.01074 11.7467H5.76367C5.76367 12.3764 5.87285 12.9197 6.09121 13.3768C6.31465 13.8338 6.60664 14.2121 6.96719 14.5117C7.32773 14.8113 7.73652 15.0348 8.19355 15.182C8.65566 15.3242 9.12539 15.3953 9.60273 15.3953C10.1309 15.3953 10.6057 15.3268 11.0271 15.1896C11.4486 15.0475 11.8066 14.8469 12.1012 14.5879C12.4008 14.3238 12.6293 14.0014 12.7867 13.6205C12.9492 13.2396 13.0305 12.8055 13.0305 12.318C13.0305 11.8609 12.967 11.4521 12.84 11.0916C12.8344 11.0753 12.8286 11.0591 12.8227 11.043H10.088C10.2616 11.1544 10.3969 11.2696 10.4939 11.3887C10.6107 11.5207 10.6869 11.6629 10.7225 11.8152ZM9.25234 8.37988C9.4188 8.4692 9.59824 8.5569 9.79066 8.64297H6.4339C6.38198 8.55543 6.33376 8.4652 6.28926 8.37227C6.12168 8.00664 6.03789 7.58262 6.03789 7.1002C6.03789 6.63809 6.12422 6.2166 6.29688 5.83574C6.46953 5.4498 6.71074 5.12227 7.02051 4.85312C7.33535 4.58398 7.70605 4.37578 8.13262 4.22852C8.56426 4.07617 9.03906 4 9.55703 4C10.0902 4 10.5701 4.08633 10.9967 4.25898C11.4283 4.42656 11.7939 4.6627 12.0936 4.96738C12.3982 5.26699 12.6318 5.62754 12.7943 6.04902C12.9568 6.46543 13.0381 6.925 13.0381 7.42773H10.8063C10.8063 7.19414 10.7809 6.98086 10.7301 6.78789C10.6844 6.58984 10.6082 6.42227 10.5016 6.28516C10.4 6.14297 10.268 6.03379 10.1055 5.95762C9.94297 5.87637 9.74746 5.83574 9.51895 5.83574C9.30566 5.83574 9.12031 5.86875 8.96289 5.93477C8.81055 6.00078 8.68359 6.09219 8.58203 6.20898C8.48047 6.3207 8.4043 6.45527 8.35352 6.6127C8.30273 6.77012 8.27734 6.9377 8.27734 7.11543C8.27734 7.29824 8.31543 7.46328 8.3916 7.61055C8.47285 7.75781 8.58457 7.89492 8.72676 8.02187C8.87402 8.14883 9.04922 8.26816 9.25234 8.37988ZM4.6 9.24297C4.26863 9.24297 4 9.5116 4 9.84297C4 10.1743 4.26863 10.443 4.6 10.443H15.4C15.7314 10.443 16 10.1743 16 9.84297C16 9.5116 15.7314 9.24297 15.4 9.24297H4.6Z" fill="black"/>
</svg>
