<svg width="20" height="20" viewBox="0 0 20 20" fill="none" xmlns="http://www.w3.org/2000/svg">
<path d="M16.4167 4.16675H7.08333C6.76117 4.16675 6.5 4.42792 6.5 4.75008V5.91675C6.5 6.23891 6.76117 6.50008 7.08333 6.50008H16.4167C16.7388 6.50008 17 6.23891 17 5.91675V4.75008C17 4.42792 16.7388 4.16675 16.4167 4.16675Z" fill="black"/>
<path d="M16.4167 8.8335H7.08333C6.76117 8.8335 6.5 9.09466 6.5 9.41683V10.5835C6.5 10.9057 6.76117 11.1668 7.08333 11.1668H16.4167C16.7388 11.1668 17 10.9057 17 10.5835V9.41683C17 9.09466 16.7388 8.8335 16.4167 8.8335Z" fill="black"/>
<path d="M16.4167 13.5H7.08333C6.76117 13.5 6.5 13.7612 6.5 14.0833V15.25C6.5 15.5722 6.76117 15.8333 7.08333 15.8333H16.4167C16.7388 15.8333 17 15.5722 17 15.25V14.0833C17 13.7612 16.7388 13.5 16.4167 13.5Z" fill="black"/>
<path d="M4.16667 6.50008C4.811 6.50008 5.33333 5.97775 5.33333 5.33341C5.33333 4.68908 4.811 4.16675 4.16667 4.16675C3.52233 4.16675 3 4.68908 3 5.33341C3 5.97775 3.52233 6.50008 4.16667 6.50008Z" fill="black"/>
<path d="M4.16667 11.1668C4.811 11.1668 5.33333 10.6445 5.33333 10.0002C5.33333 9.35583 4.811 8.8335 4.16667 8.8335C3.52233 8.8335 3 9.35583 3 10.0002C3 10.6445 3.52233 11.1668 4.16667 11.1668Z" fill="black"/>
<path d="M4.16667 15.8333C4.811 15.8333 5.33333 15.311 5.33333 14.6667C5.33333 14.0223 4.811 13.5 4.16667 13.5C3.52233 13.5 3 14.0223 3 14.6667C3 15.311 3.52233 15.8333 4.16667 15.8333Z" fill="black"/>
</svg>
