<svg width="20" height="20" viewBox="0 0 20 20" fill="none" xmlns="http://www.w3.org/2000/svg">
<path d="M13.793 4.33594V11.6602C13.793 12.2803 13.7051 12.8101 13.5293 13.2495C13.3584 13.689 13.1167 14.0503 12.8042 14.3335C12.4966 14.6118 12.1279 14.8169 11.6982 14.9487C11.2686 15.0806 10.7998 15.1465 10.292 15.1465C9.77441 15.1465 9.29834 15.0806 8.86377 14.9487C8.43408 14.8169 8.06299 14.6118 7.75049 14.3335C7.44287 14.0503 7.20117 13.689 7.02539 13.2495C6.85449 12.8101 6.76904 12.2803 6.76904 11.6602V4.33594H8.93701V11.6602C8.93701 12.0117 8.96631 12.2974 9.0249 12.5171C9.0835 12.7368 9.16895 12.9102 9.28125 13.0371C9.39844 13.1592 9.54004 13.2446 9.70605 13.2935C9.87695 13.3374 10.0723 13.3594 10.292 13.3594C10.5117 13.3594 10.7046 13.3374 10.8706 13.2935C11.0415 13.2446 11.1831 13.1592 11.2954 13.0371C11.4077 12.9102 11.4932 12.7368 11.5518 12.5171C11.6104 12.2974 11.6396 12.0117 11.6396 11.6602V4.33594H13.793Z" fill="black"/>
<path d="M6 16.4648H14.5693V17.1973H6V16.4648Z" fill="black"/>
</svg>
