<svg width="9" height="14" viewBox="0 0 9 14" fill="none" xmlns="http://www.w3.org/2000/svg">
<g opacity="0.3">
<path d="M7.79297 0.335938V7.66016C7.79297 8.28027 7.70508 8.81006 7.5293 9.24951C7.3584 9.68896 7.1167 10.0503 6.8042 10.3335C6.49658 10.6118 6.12793 10.8169 5.69824 10.9487C5.26855 11.0806 4.7998 11.1465 4.29199 11.1465C3.77441 11.1465 3.29834 11.0806 2.86377 10.9487C2.43408 10.8169 2.06299 10.6118 1.75049 10.3335C1.44287 10.0503 1.20117 9.68896 1.02539 9.24951C0.854492 8.81006 0.769043 8.28027 0.769043 7.66016V0.335938H2.93701V7.66016C2.93701 8.01172 2.96631 8.29736 3.0249 8.51709C3.0835 8.73682 3.16895 8.91016 3.28125 9.03711C3.39844 9.15918 3.54004 9.24463 3.70605 9.29346C3.87695 9.3374 4.07227 9.35938 4.29199 9.35938C4.51172 9.35938 4.70459 9.3374 4.87061 9.29346C5.0415 9.24463 5.18311 9.15918 5.29541 9.03711C5.40771 8.91016 5.49316 8.73682 5.55176 8.51709C5.61035 8.29736 5.63965 8.01172 5.63965 7.66016V0.335938H7.79297Z" fill="black"/>
<path d="M0 12.4648H8.56934V13.1973H0V12.4648Z" fill="black"/>
</g>
</svg>
