<svg width="11" height="13" viewBox="0 0 11 13" fill="none" xmlns="http://www.w3.org/2000/svg">
<g clip-path="url(#clip0)">
<path d="M1 7L1 7.5L0.5 7.5L0.5 7L1 7ZM10.8536 6.64645C11.0488 6.84171 11.0488 7.15829 10.8536 7.35355L7.67157 10.5355C7.47631 10.7308 7.15973 10.7308 6.96447 10.5355C6.7692 10.3403 6.7692 10.0237 6.96447 9.82843L9.79289 7L6.96447 4.17157C6.7692 3.97631 6.7692 3.65973 6.96447 3.46447C7.15973 3.2692 7.47631 3.2692 7.67157 3.46447L10.8536 6.64645ZM1.5 -2.18557e-08L1.5 7L0.5 7L0.5 2.18557e-08L1.5 -2.18557e-08ZM1 6.5L10.5 6.5L10.5 7.5L1 7.5L1 6.5Z" fill="#8C8C8C"/>
</g>
<defs>
<clipPath id="clip0">
<rect width="11" height="13" fill="white"/>
</clipPath>
</defs>
</svg>
