<svg width="14" height="13" viewBox="0 0 14 13" fill="none" xmlns="http://www.w3.org/2000/svg">
<path d="M6.58813 12.3326C6.6422 12.3857 6.7064 12.4278 6.77707 12.4565C6.84774 12.4852 6.9235 12.5 7 12.5C7.0765 12.5 7.15226 12.4852 7.22293 12.4565C7.2936 12.4278 7.3578 12.3857 7.41187 12.3326L12.8506 7.00044C13.2135 6.64827 13.5019 6.22925 13.6992 5.76747C13.8964 5.30568 13.9987 4.81023 14 4.30958C14.0013 3.80894 13.9017 3.31297 13.7069 2.85019C13.5121 2.3874 13.2259 1.96692 12.8648 1.61291C12.5038 1.2589 12.0749 0.978342 11.6028 0.787353C11.1308 0.596364 10.6249 0.498714 10.1143 0.500013C9.60364 0.501312 9.09829 0.601535 8.62728 0.794923C8.15626 0.988311 7.72887 1.27105 7.36966 1.62689L7 1.98932L6.63034 1.62689C6.27113 1.27105 5.84374 0.988311 5.37272 0.794923C4.90171 0.601535 4.39636 0.501312 3.88571 0.500013C3.37506 0.498714 2.86918 0.596364 2.39715 0.787353C1.92512 0.978342 1.49624 1.2589 1.13515 1.61291C0.774068 1.96692 0.4879 2.3874 0.293095 2.85019C0.09829 3.31297 -0.00131203 3.80894 1.30493e-05 4.30958C0.00133812 4.81023 0.103564 5.30568 0.300816 5.76747C0.498069 6.22925 0.786458 6.64827 1.14941 7.00044L6.58813 12.3326Z" fill="#FF0000"/>
</svg>
