<svg width="14" height="13" viewBox="0 0 14 13" fill="none" xmlns="http://www.w3.org/2000/svg">
<path d="M6.58813 12.3326C6.6422 12.3857 6.7064 12.4278 6.77707 12.4565C6.84774 12.4852 6.9235 12.5 7 12.5C7.0765 12.5 7.15226 12.4852 7.22293 12.4565C7.2936 12.4278 7.3578 12.3857 7.41187 12.3326L12.8506 7.00044C13.2135 6.64827 13.5019 6.22925 13.6992 5.76747C13.8964 5.30568 13.9987 4.81023 14 4.30958C14.0013 3.80894 13.9017 3.31297 13.7069 2.85019C13.5121 2.3874 13.2259 1.96692 12.8648 1.61291C12.5038 1.2589 12.0749 0.978342 11.6028 0.787353C11.1308 0.596364 10.6249 0.498714 10.1143 0.500013C9.60364 0.501312 9.09829 0.601535 8.62728 0.794923C8.15626 0.988311 7.72887 1.27105 7.36966 1.62689L7 1.98932L6.63034 1.62689C6.27113 1.27105 5.84374 0.988311 5.37272 0.794923C4.90171 0.601535 4.39636 0.501312 3.88571 0.500013C3.37506 0.498714 2.86918 0.596364 2.39715 0.787353C1.92512 0.978342 1.49624 1.2589 1.13515 1.61291C0.774068 1.96692 0.4879 2.3874 0.293095 2.85019C0.09829 3.31297 -0.00131203 3.80894 1.30493e-05 4.30958C0.00133812 4.81023 0.103564 5.30568 0.300816 5.76747C0.498069 6.22925 0.786458 6.64827 1.14941 7.00044L6.58813 12.3326ZM3.88987 1.65543C4.24603 1.65462 4.59881 1.72306 4.92781 1.85678C5.25681 1.99051 5.5555 2.18686 5.8066 2.43449L6.58813 3.20072C6.6422 3.25378 6.7064 3.29588 6.77707 3.3246C6.84774 3.35333 6.9235 3.36811 7 3.36811C7.0765 3.36811 7.15226 3.35333 7.22293 3.3246C7.2936 3.29588 7.3578 3.25378 7.41187 3.20072L8.1934 2.43449C8.44297 2.17844 8.74222 1.97386 9.07356 1.83277C9.4049 1.69168 9.76166 1.61693 10.1229 1.6129C10.4841 1.60888 10.8425 1.67567 11.177 1.80934C11.5116 1.94301 11.8155 2.14088 12.0709 2.39131C12.3263 2.64174 12.5282 2.9397 12.6645 3.26767C12.8008 3.59564 12.869 3.94702 12.8649 4.30116C12.8608 4.65531 12.7845 5.00508 12.6406 5.32993C12.4967 5.65478 12.288 5.94816 12.0268 6.19284L7 11.1212L1.97315 6.19284C1.59416 5.82108 1.33609 5.34752 1.23155 4.832C1.12702 4.31648 1.18071 3.78214 1.38584 3.29653C1.59098 2.81093 1.93835 2.39584 2.38404 2.10373C2.82974 1.81163 3.35376 1.65562 3.88987 1.65543V1.65543Z" fill="#8C8C8C"/>
</svg>
