<svg width="17" height="11" viewBox="0 0 17 11" fill="none" xmlns="http://www.w3.org/2000/svg">
<path opacity="0.3" d="M8.33496 11H6.18896V6.43701H3.01025V11H0.856934V0.335938H3.01025V4.6499H6.18896V0.335938H8.33496V11ZM16.1938 11H9.90967V9.53516L12.7954 5.86572C13.0005 5.58252 13.1714 5.32617 13.3081 5.09668C13.4448 4.8623 13.5547 4.64746 13.6377 4.45215C13.7207 4.25684 13.7793 4.07617 13.8135 3.91016C13.8477 3.74414 13.8647 3.58301 13.8647 3.42676C13.8647 2.95312 13.7817 2.58203 13.6157 2.31348C13.4546 2.04492 13.2202 1.91064 12.9126 1.91064C12.7271 1.91064 12.5659 1.95703 12.4292 2.0498C12.2925 2.1377 12.1777 2.26221 12.085 2.42334C11.9922 2.57959 11.9238 2.76758 11.8799 2.9873C11.8359 3.20703 11.814 3.44385 11.814 3.69775H9.73389C9.73389 3.21436 9.80713 2.76025 9.95361 2.33545C10.105 1.91064 10.3174 1.53955 10.5908 1.22217C10.8691 0.904785 11.2061 0.65332 11.6016 0.467773C12.002 0.282227 12.4512 0.189453 12.9492 0.189453C13.4375 0.189453 13.8672 0.260254 14.2383 0.401855C14.6143 0.538574 14.9292 0.736328 15.1831 0.995117C15.437 1.25391 15.6274 1.57129 15.7544 1.94727C15.8862 2.32324 15.9521 2.74561 15.9521 3.21436C15.9521 3.5708 15.9058 3.91748 15.813 4.25439C15.7202 4.58643 15.5859 4.91846 15.4102 5.25049C15.2393 5.58252 15.0293 5.91943 14.7803 6.26123C14.5312 6.59814 14.2505 6.95215 13.938 7.32324L12.5684 9.27881H16.1938V11Z" fill="black"/>
</svg>
