<svg width="14" height="12" viewBox="0 0 14 12" fill="none" xmlns="http://www.w3.org/2000/svg">
<g opacity="0.3">
<path d="M13.4167 0.166626H4.08333C3.76117 0.166626 3.5 0.427793 3.5 0.749959V1.91663C3.5 2.23879 3.76117 2.49996 4.08333 2.49996H13.4167C13.7388 2.49996 14 2.23879 14 1.91663V0.749959C14 0.427793 13.7388 0.166626 13.4167 0.166626Z" fill="black"/>
<path d="M13.4167 4.83325H4.08333C3.76117 4.83325 3.5 5.09442 3.5 5.41659V6.58325C3.5 6.90542 3.76117 7.16659 4.08333 7.16659H13.4167C13.7388 7.16659 14 6.90542 14 6.58325V5.41659C14 5.09442 13.7388 4.83325 13.4167 4.83325Z" fill="black"/>
<path d="M13.4167 9.5H4.08333C3.76117 9.5 3.5 9.76117 3.5 10.0833V11.25C3.5 11.5722 3.76117 11.8333 4.08333 11.8333H13.4167C13.7388 11.8333 14 11.5722 14 11.25V10.0833C14 9.76117 13.7388 9.5 13.4167 9.5Z" fill="black"/>
<path d="M1.16667 2.49996C1.811 2.49996 2.33333 1.97762 2.33333 1.33329C2.33333 0.68896 1.811 0.166626 1.16667 0.166626C0.522334 0.166626 0 0.68896 0 1.33329C0 1.97762 0.522334 2.49996 1.16667 2.49996Z" fill="black"/>
<path d="M1.16667 7.16659C1.811 7.16659 2.33333 6.64425 2.33333 5.99992C2.33333 5.35559 1.811 4.83325 1.16667 4.83325C0.522334 4.83325 0 5.35559 0 5.99992C0 6.64425 0.522334 7.16659 1.16667 7.16659Z" fill="black"/>
<path d="M1.16667 11.8333C1.811 11.8333 2.33333 11.311 2.33333 10.6667C2.33333 10.0223 1.811 9.5 1.16667 9.5C0.522334 9.5 0 10.0223 0 10.6667C0 11.311 0.522334 11.8333 1.16667 11.8333Z" fill="black"/>
</g>
</svg>
